HIERARCHY
ROOT root
{
	OFFSET	0	13.1	24.9
	CHANNELS 6  Xposition Yposition Zposition Xrotation Yrotation Zrotation
	JOINT spine_1
	{
		OFFSET	0	9.99999	0
		CHANNELS 3  Xrotation Yrotation Zrotation
		JOINT spine_2
		{
			OFFSET	0	112	-10
			CHANNELS 3  Xrotation Yrotation Zrotation
			JOINT spine_3
			{
				OFFSET	0	206.5	19.3
				CHANNELS 3  Xrotation Yrotation Zrotation
				JOINT spine_4
				{
					OFFSET	0	110.4	14.6
					CHANNELS 3  Xrotation Yrotation Zrotation
					JOINT neck_1
					{
						OFFSET	0	71.8	-50.3
						CHANNELS 3  Xrotation Yrotation Zrotation
						JOINT neck_2
						{
							OFFSET	0	86.2	-25.8
							CHANNELS 3  Xrotation Yrotation Zrotation
							JOINT head_ee
							{
								OFFSET	0	179.8	-8.7
								CHANNELS 3  Xrotation Yrotation Zrotation
								End Site
								{
									OFFSET	1	0	0
								}
							}
						}
					}
					JOINT left_clavicle
					{
						OFFSET	-43.2	22.4	-70.8
						CHANNELS 3  Xrotation Yrotation Zrotation
						JOINT left_shoulder
						{
							OFFSET	-93.9	-5.79999	48.7
							CHANNELS 3  Xrotation Yrotation Zrotation
							JOINT left_elbow
							{
								OFFSET	-291.4	-30.8	15.2
								CHANNELS 3  Xrotation Yrotation Zrotation
								JOINT left_lowarm_twist
								{
									OFFSET	-110.7	-3.89999	13.6
									CHANNELS 3  Xrotation Yrotation Zrotation
									JOINT left_hand
									{
										OFFSET	-110.7	-3.89999	13.6
										CHANNELS 3  Xrotation Yrotation Zrotation
										JOINT left_ee
										{
											OFFSET	-80.8	-5.10001	12.1
											CHANNELS 3  Xrotation Yrotation Zrotation
											End Site
											{
												OFFSET	1	0	0
											}
										}
									}
								}
							}
						}
					}
					JOINT right_clavicle
					{
						OFFSET	43.2	22.4	-70.8
						CHANNELS 3  Xrotation Yrotation Zrotation
						JOINT right_shoulder
						{
							OFFSET	93.9	-5.79999	48.7
							CHANNELS 3  Xrotation Yrotation Zrotation
							JOINT right_elbow
							{
								OFFSET	291.4	-30.8	15.2
								CHANNELS 3  Xrotation Yrotation Zrotation
								JOINT right_lowarm_twist
								{
									OFFSET	110.7	-3.89999	13.6
									CHANNELS 3  Xrotation Yrotation Zrotation
									JOINT right_hand
									{
										OFFSET	110.7	-3.89999	13.6
										CHANNELS 3  Xrotation Yrotation Zrotation
										JOINT right_ee
										{
											OFFSET	80.8	-5.10001	12.1
											CHANNELS 3  Xrotation Yrotation Zrotation
											End Site
											{
												OFFSET	1	0	0
											}
										}
									}
								}
							}
						}
					}
				}
			}
		}
	}
	JOINT left_hip
	{
		OFFSET	-82.8	-127.5	0.300001
		CHANNELS 3  Xrotation Yrotation Zrotation
		JOINT left_knee
		{
			OFFSET	-28.2	-396.7	2.2
			CHANNELS 3  Xrotation Yrotation Zrotation
			JOINT left_ankle
			{
				OFFSET	-11.7	-411.3	35.4
				CHANNELS 3  Xrotation Yrotation Zrotation
				JOINT left_toes
				{
					OFFSET	0	-60	-88.6
					CHANNELS 3  Xrotation Yrotation Zrotation
					JOINT left_foot_ee
					{
						OFFSET	-22.5	-16.5	-42.2
						CHANNELS 3  Xrotation Yrotation Zrotation
						End Site
						{
							OFFSET	1	0	0
						}
					}
				}
			}
		}
	}
	JOINT right_hip
	{
		OFFSET	82.8	-127.5	0.300001
		CHANNELS 3  Xrotation Yrotation Zrotation
		JOINT right_knee
		{
			OFFSET	28.2	-396.7	2.2
			CHANNELS 3  Xrotation Yrotation Zrotation
			JOINT right_ankle
			{
				OFFSET	11.7	-411.3	35.4
				CHANNELS 3  Xrotation Yrotation Zrotation
				JOINT right_toes
				{
					OFFSET	0	-60	-88.6
					CHANNELS 3  Xrotation Yrotation Zrotation
					JOINT right_foot_ee
					{
						OFFSET	22.5	-16.5	-42.2
						CHANNELS 3  Xrotation Yrotation Zrotation
						End Site
						{
							OFFSET	1	0	0
						}
					}
				}
			}
		}
	}
}
MOTION
Frames: 12
Frame Time: 0.02
3508.29 741.16 -707.811 -24.4572 47.2374 16.5504 6.08008 0.0617263 0.0627654 6.08008 0.0576073 0.066566 6.08014 0.0502675 0.072269 6.08014 0.0610502 0.0634232 -14.5974 20.058 0.793031 -16.0405 37.8741 7.98296 -0.0 0.0 -0.0 1.82003 20.6516 5.04453 -36.7329 -32.5759 68.7901 0.632308 -17.3921 0.0967127 10.4683 0.249568 -1.31208 -0.281572 9.89123 2.29117 -0.0 0.0 -0.0 10.8232 19.9517 -21.2582 -22.7745 30.052 -51.9578 1.08705 28.3013 -0.274077 41.4054 0.424373 5.15877 1.94559 6.52619 -10.4174 0.0 0.0 0.0 32.9692 -10.0415 8.19424 -33.8438 -0.122247 5.11771 20.552 25.6636 -2.95239 12.7603 -0.0 -0.0 -0.0 0.0 -0.0 17.9955 0.870978 8.45308 -5.24453 -0.180128 -0.784445 13.7976 -25.6173 2.03328 16.557 -0.0 -0.0 0.0 0.0 0.0 
3493.49 739.721 -708.531 -22.9759 47.2864 15.2976 5.87067 0.00438402 0.0438657 5.87067 0.00158384 0.0440558 5.87067 -0.003231 0.0439657 5.87067 0.0037531 0.0439242 -16.2584 20.3635 1.72013 -18.0385 38.0845 9.66417 -0.0 0.0 -0.0 1.64522 21.2303 4.82792 -34.7508 -32.703 68.6629 0.524176 -14.5562 0.0669454 10.0729 0.244524 -1.26183 -0.435564 9.37624 1.0872 -0.0 0.0 -0.0 10.5719 19.8399 -20.6989 -23.1382 29.8662 -53.0685 1.03723 27.1941 -0.250883 41.374 0.422654 5.15515 2.08892 6.85271 -11.2626 0.0 0.0 0.0 28.8474 -10.4598 9.85501 -30.9656 0.00587044 4.69471 26.891 27.4866 -3.79822 12.1669 -0.0 -0.0 -0.0 0.0 -0.0 17.1462 1.40761 9.16027 -7.1867 -0.228495 -1.07856 14.5468 -28.6461 2.17852 16.3994 -0.0 -0.0 0.0 0.0 0.0 
3478.8 737.653 -713.094 -22.6944 49.9626 15.1951 5.6953 -0.0997293 0.203951 5.69532 -0.112505 0.197192 5.69492 -0.133906 0.183333 5.69489 -0.103272 0.20218 -15.1824 20.8855 3.58315 -16.6919 37.9133 11.1082 -0.0 0.0 -0.0 1.31075 20.9332 4.32574 -34.3051 -32.2934 67.0877 0.648508 -17.8098 0.101611 11.1137 0.257058 -1.39418 -0.627007 9.80628 0.0411246 -0.0 0.0 -0.0 9.7292 18.5058 -18.9006 -25.1782 28.6711 -54.3138 1.20736 30.882 -0.333503 39.2249 0.309564 4.90463 1.97623 6.90357 -10.4666 0.0 0.0 0.0 25.1498 -6.53544 9.63374 -28.9962 0.0812049 4.40186 31.1582 26.4467 -4.27818 11.3516 -0.0 -0.0 -0.0 0.0 -0.0 19.7613 1.96359 10.4902 -17.6998 -0.315926 -2.68704 16.3636 -27.0252 2.40936 16.1593 -0.0 -0.0 0.0 0.0 0.0 
3465.67 739.179 -714.274 -21.7515 50.7484 14.0078 5.53294 -0.191659 0.397944 5.533 -0.216593 0.384942 5.53149 -0.259414 0.357488 5.53137 -0.1997 0.39397 -14.4178 20.7904 2.86916 -15.8103 38.0416 10.1032 -0.0 0.0 -0.0 1.39462 20.6629 4.42739 -34.2875 -32.0944 66.332 0.651456 -17.8856 0.102515 10.9923 0.25572 -1.37874 -0.534385 9.34189 0.437577 -0.0 0.0 -0.0 9.2146 17.0995 -17.8446 -23.9571 28.2238 -56.3881 1.10916 28.7856 -0.284645 38.9481 0.295684 4.87206 1.87981 6.75517 -9.86896 0.0 0.0 0.0 23.3835 -5.44191 10.4282 -28.3991 0.102047 4.3126 28.964 26.2533 -4.01729 13.1109 -0.0 -0.0 -0.0 0.0 -0.0 22.1365 0.0595768 11.5591 -23.2844 -0.242198 -3.54044 15.0256 -27.752 2.2333 19.7273 -0.0 -0.0 0.0 0.0 0.0 
3456.65 738.857 -710.804 -21.2249 52.0886 13.5759 5.2875 -0.288694 0.518959 5.2876 -0.321131 0.499538 5.28472 -0.378414 0.457675 5.28456 -0.301385 0.511694 -15.0393 20.7983 3.46619 -16.5126 37.7936 10.903 -0.0 0.0 -0.0 1.83896 19.4406 4.99869 -31.5122 -32.3097 64.9544 0.612652 -16.8826 0.090921 11.3281 0.259341 -1.42148 -0.799362 10.1513 -0.91383 -0.0 0.0 -0.0 8.77111 18.6471 -16.7659 -24.9055 27.5362 -57.4497 1.11632 28.9413 -0.288099 37.5749 0.229172 4.70955 2.19408 7.42903 -11.7393 0.0 0.0 0.0 20.1321 -1.07187 10.122 -24.8563 0.206477 3.779 28.8071 23.6848 -3.93882 10.8262 -0.0 -0.0 -0.0 0.0 -0.0 23.4687 1.75308 11.7088 -27.4541 -0.133128 -4.17091 13.8302 -29.3564 2.08639 20.1983 -0.0 -0.0 0.0 0.0 0.0 
3446.65 739.958 -713.648 -20.715 53.0991 13.6869 5.05892 -0.327307 0.375711 5.05893 -0.350551 0.354123 5.05677 -0.391508 0.308236 5.05679 -0.337915 0.366199 -13.6583 21.1796 3.41737 -14.9177 38.3536 10.4418 -0.0 0.0 -0.0 1.81909 18.6508 4.91966 -29.6057 -32.659 64.5445 0.670794 -18.3813 0.108534 11.2604 0.258632 -1.41287 -0.808242 10.3356 -0.890605 -0.0 0.0 -0.0 8.26834 16.6931 -15.7864 -26.4996 27.9486 -57.4683 1.14048 29.4638 -0.299887 37.0908 0.206657 4.65189 1.93423 6.80767 -10.2195 0.0 0.0 0.0 17.707 -0.523656 9.87865 -22.6311 0.255116 3.44102 29.1018 22.9844 -3.95827 10.7986 -0.0 -0.0 -0.0 0.0 -0.0 25.8496 -0.541026 11.4347 -31.3379 0.00949898 -4.74976 11.5565 -28.9203 1.75123 20.2423 -0.0 -0.0 0.0 0.0 0.0 
3434.54 736.109 -710.405 -20.409 53.1692 13.1048 5.2384 -0.287175 0.314872 5.2384 -0.306629 0.29596 5.23682 -0.339948 0.256999 5.23685 -0.295094 0.307462 -12.9837 21.0545 3.10655 -14.1076 38.1972 9.82437 -0.0 0.0 -0.0 2.65845 16.5548 6.09888 -27.9745 -32.2481 63.5694 0.733024 -19.9569 0.128969 11.9941 0.265782 -1.50631 -0.867908 9.73807 -1.53285 -0.0 0.0 -0.0 8.05594 17.6781 -15.2583 -27.4416 27.1618 -58.2271 1.06645 27.8462 -0.264383 36.8379 0.195089 4.6217 1.77855 4.92692 -9.94833 0.0 0.0 0.0 16.3946 1.8767 10.3591 -20.8394 0.284716 3.1677 30.0107 21.9451 -4.04115 10.4503 -0.0 -0.0 -0.0 0.0 -0.0 26.4937 0.221637 12.0162 -34.1915 0.139166 -5.16838 10.8591 -26.6973 1.6261 19.0137 -0.0 -0.0 0.0 0.0 0.0 
3423.54 737.413 -714.175 -22.3184 55.0391 15.6825 5.27252 -0.335534 0.181732 5.27247 -0.346418 0.160013 5.27155 -0.363054 0.11748 5.2717 -0.339944 0.173344 -12.4037 20.8448 2.44516 -13.4239 38.1136 8.89729 -0.0 0.0 -0.0 3.06438 14.9109 6.67807 -26.7437 -31.9324 62.3668 0.735777 -20.0259 0.129911 12.5365 0.270298 -1.57544 -0.849253 9.05244 -1.71245 -0.0 0.0 -0.0 7.52415 14.2617 -14.3067 -29.096 26.2948 -58.2581 1.03203 27.0771 -0.248509 36.1773 0.165504 4.54259 1.74371 4.01327 -10.0915 0.0 0.0 0.0 14.7586 3.58115 10.1449 -18.3521 0.31161 2.78703 29.4473 22.0037 -3.97825 9.40258 -0.0 -0.0 -0.0 0.0 -0.0 28.4986 0.776472 10.8932 -36.5616 0.262635 -5.51092 6.94935 -28.1964 1.06254 18.6092 -0.0 -0.0 0.0 0.0 0.0 
3416.24 739.772 -712.944 -20.8506 54.9601 14.5527 4.83751 -0.212515 0.143623 4.8375 -0.221223 0.129809 4.83701 -0.235917 0.100664 4.83706 -0.217058 0.13666 -11.8836 20.5872 1.90923 -12.7983 37.8784 8.09355 -0.0 0.0 -0.0 3.60667 13.6565 7.52347 -25.8701 -33.8344 61.232 0.779276 -21.108 0.145192 14.0639 0.279497 -1.7703 -1.08424 9.67256 -2.95024 -0.0 0.0 -0.0 7.3175 14.9897 -13.8187 -27.7299 22.9652 -60.2597 0.937763 24.9164 -0.207184 35.9683 0.156336 4.51749 1.89001 8.07151 -9.3749 0.0 0.0 0.0 11.8765 4.67698 9.88051 -13.3079 0.315332 2.01336 25.1501 20.6493 -3.45022 9.68975 -0.0 -0.0 -0.0 0.0 -0.0 30.6587 1.40756 10.8346 -37.0287 0.288637 -5.57781 3.00074 -21.9542 0.448508 15.1813 -0.0 -0.0 0.0 0.0 0.0 
3400.35 744.86 -715.004 -18.9315 57.0179 13.671 4.56358 -0.343366 0.0977112 4.56352 -0.348888 0.0756636 4.5631 -0.355815 0.0290441 4.56327 -0.346762 0.0848746 -11.5294 20.3143 1.14264 -12.3802 37.7915 7.13965 -0.0 0.0 -0.0 4.11594 12.3533 8.345 -25.2809 -34.5643 59.7253 0.78836 -21.3321 0.14848 14.6838 0.281749 -1.84945 -1.18825 9.06139 -3.89331 -0.0 0.0 -0.0 6.85916 13.6497 -12.9087 -29.219 22.3885 -60.5691 0.89628 23.9405 -0.190028 35.0019 0.115135 4.40103 1.77093 6.66808 -9.16109 0.0 0.0 0.0 7.19528 4.97657 10.5457 -10.1215 0.282596 1.52561 25.2736 21.4889 -3.47814 9.49603 -0.0 -0.0 -0.0 0.0 -0.0 33.619 3.53862 8.84958 -35.5663 0.209054 -5.36768 2.18262 -16.9525 0.321315 12.9471 -0.0 -0.0 0.0 0.0 0.0 
3393.23 742.324 -718.009 -19.4907 57.4823 14.7303 4.31874 -0.357284 0.0339217 4.31867 -0.358718 0.0111178 4.31865 -0.356899 -0.037756 4.31882 -0.358382 0.0190841 -11.7278 19.9675 1.01363 -12.5843 37.2399 6.9748 -0.0 0.0 -0.0 5.20238 11.1244 10.1937 -23.308 -34.5728 57.9778 0.715189 -19.5084 0.122948 15.2086 0.282985 -1.91647 -1.59936 9.16268 -6.50427 -0.0 0.0 -0.0 6.51879 12.6701 -12.2357 -29.3542 21.1071 -61.153 0.871537 23.3512 -0.180103 35.0383 0.11665 4.40542 1.46002 6.93294 -6.92951 0.0 0.0 0.0 4.81006 6.59522 10.6576 -6.4742 0.21191 0.970475 25.2789 21.9721 -3.48667 8.56503 -0.0 -0.0 -0.0 0.0 -0.0 35.0483 3.75446 7.93422 -35.5205 0.206649 -5.36107 0.469285 -14.5117 0.0689914 11.9824 -0.0 -0.0 0.0 0.0 0.0 
3379.8 742.304 -718.863 -17.6838 55.297 13.2113 4.11154 0.11557 -0.113574 4.11154 0.122563 -0.10599 4.11131 0.136154 -0.0878495 4.11132 0.120571 -0.10825 -10.8786 19.0817 0.10105 -11.528 36.0298 5.48559 -0.0 0.0 -0.0 5.36984 11.3404 10.4816 -22.3492 -34.1247 57.0133 0.769828 -20.8743 0.141808 15.2225 0.283009 -1.91824 -1.92592 6.33428 -9.98063 -0.0 0.0 -0.0 6.23278 11.9456 -11.6676 -29.4422 20.1583 -61.5639 0.782281 21.1822 -0.146277 35.9966 0.157572 4.52089 0.965394 5.9124 -4.0082 0.0 0.0 0.0 2.78976 6.84926 10.9766 -4.83273 0.168592 0.722299 24.3689 22.171 -3.37885 7.0275 -0.0 -0.0 -0.0 0.0 -0.0 36.2563 4.26215 6.70719 -35.0564 0.182574 -5.29395 0.875906 -11.5553 0.128107 12.0348 -0.0 -0.0 0.0 0.0 0.0 
